<?xml version="1.0" encoding="utf-8"?>
<!-- Generator: Adobe Illustrator 16.0.0, SVG Export Plug-In . SVG Version: 6.00 Build 0)  -->
<!DOCTYPE svg PUBLIC "-//W3C//DTD SVG 1.1//EN" "http://www.w3.org/Graphics/SVG/1.1/DTD/svg11.dtd">
<svg version="1.1" id="Layer_1" xmlns="http://www.w3.org/2000/svg" xmlns:xlink="http://www.w3.org/1999/xlink" x="0px" y="0px"
	 width="107.833px" height="105.667px" viewBox="0 0 107.833 105.667" enable-background="new 0 0 107.833 105.667"
	 xml:space="preserve">
<rect x="-27.196" y="29.544" width="0" height="1.553"/>
<g>
	<path fill="#FFFFFF" stroke="#428BCA" stroke-miterlimit="10" d="M96.637,45.889c-3.354,0-6.158,2.389-6.805,5.557h-8.545
		c-0.326-6.623-2.959-12.621-7.129-17.227l6.154-6.152c1.1,0.727,2.41,1.156,3.822,1.156c3.828,0,6.943-3.116,6.943-6.945
		c0-3.829-3.115-6.944-6.943-6.944s-6.943,3.116-6.943,6.944c0,1.414,0.43,2.727,1.158,3.825l-6.156,6.152
		c-4.604-4.168-10.604-6.801-17.225-7.129v-8.545c3.166-0.646,5.555-3.451,5.555-6.804c0-3.829-3.113-6.944-6.943-6.944
		c-3.828,0-6.943,3.116-6.943,6.944c0,3.353,2.39,6.158,5.556,6.804v8.545c-6.622,0.328-12.621,2.961-17.226,7.129l-6.155-6.153
		c0.729-1.099,1.158-2.412,1.158-3.825c0-3.829-3.115-6.944-6.944-6.944c-3.829,0-6.943,3.116-6.943,6.944
		c0,3.829,3.114,6.945,6.943,6.945c1.413,0,2.725-0.429,3.822-1.156l6.154,6.152c-4.17,4.606-6.803,10.604-7.129,17.227h-8.545
		c-0.645-3.168-3.451-5.557-6.804-5.557c-3.829,0-6.944,3.116-6.944,6.945c0,3.832,3.115,6.944,6.944,6.944
		c3.353,0,6.158-2.392,6.804-5.553h8.545c0.328,6.621,2.961,12.618,7.129,17.224l-6.151,6.153c-1.099-0.729-2.412-1.158-3.825-1.158
		c-3.829,0-6.943,3.117-6.943,6.945c0,3.829,3.114,6.942,6.943,6.942c3.829,0,6.944-3.113,6.944-6.942
		c0-1.414-0.429-2.726-1.155-3.822l6.152-6.153c4.605,4.17,10.604,6.801,17.226,7.129v8.545c-3.166,0.645-5.556,3.449-5.556,6.803
		c0,3.83,3.115,6.945,6.943,6.945c3.83,0,6.943-3.115,6.943-6.945c0-3.354-2.389-6.158-5.555-6.803v-8.545
		c6.619-0.328,12.617-2.959,17.225-7.129l6.154,6.153c-0.73,1.101-1.156,2.408-1.156,3.822c0,3.829,3.115,6.942,6.943,6.942
		s6.943-3.113,6.943-6.942c0-3.828-3.115-6.945-6.943-6.945c-1.412,0-2.729,0.431-3.824,1.158l-6.152-6.153
		c4.168-4.605,6.801-10.603,7.129-17.224h8.545c0.646,3.161,3.451,5.553,6.805,5.553c3.828-0.001,6.943-3.114,6.943-6.944
		C103.581,49.004,100.465,45.889,96.637,45.889z M84.137,18.111c2.299,0,4.168,1.869,4.168,4.167c0,2.298-1.869,4.167-4.168,4.167
		s-4.166-1.869-4.166-4.167C79.971,19.98,81.838,18.111,84.137,18.111z M23.024,26.444c-2.298,0-4.167-1.869-4.167-4.167
		c0-2.297,1.869-4.167,4.167-4.167c2.298,0,4.167,1.869,4.167,4.167C27.191,24.575,25.323,26.444,23.024,26.444z M10.524,56.999
		c-2.298,0-4.167-1.868-4.167-4.167c0-2.299,1.869-4.168,4.167-4.168c2.298,0,4.167,1.869,4.167,4.168
		C14.691,55.13,12.823,56.999,10.524,56.999z M23.024,87.554c-2.298,0-4.167-1.867-4.167-4.166c0-2.298,1.869-4.166,4.167-4.166
		c2.298,0,4.167,1.868,4.167,4.166C27.191,85.687,25.323,87.554,23.024,87.554z M49.415,9.777c0-2.297,1.869-4.167,4.166-4.167
		c2.299,0,4.168,1.869,4.168,4.167c0,2.298-1.869,4.167-4.168,4.167C51.284,13.944,49.415,12.075,49.415,9.777z M57.749,95.888
		c0,2.299-1.869,4.166-4.168,4.166c-2.297,0-4.166-1.867-4.166-4.166c0-2.298,1.869-4.166,4.166-4.166
		C55.879,91.722,57.749,93.59,57.749,95.888z M63.999,59.78c0,5.367-3.52,9.221-8.682,9.676v2.824h-3.471v-2.953
		c-6.34-0.904-8.682-5.348-8.682-9.547h5.557c0,0.85,0.009,3.129,3.125,3.9v-8.33c-3.374-0.981-8.682-3.877-8.682-9.46
		c0-5.37,3.521-9.221,8.682-9.676V33.39h3.471v2.954c6.338,0.902,8.682,5.347,8.682,9.546h-5.557c0-0.851-0.01-3.128-3.125-3.901
		v8.332C58.69,51.305,63.999,54.196,63.999,59.78z M84.137,79.222c2.299,0,4.168,1.868,4.168,4.166c0,2.299-1.869,4.166-4.168,4.166
		s-4.166-1.867-4.166-4.166C79.971,81.09,81.838,79.222,84.137,79.222z M96.637,56.999c-2.299,0-4.166-1.868-4.166-4.167
		c0-2.299,1.867-4.168,4.166-4.168s4.168,1.869,4.168,4.168C100.805,55.13,98.934,56.999,96.637,56.999z"/>
	<rect x="41.522" y="30.321" fill="#FFFFFF" stroke="#FFFFFF" stroke-miterlimit="10" width="24.047" height="45.075"/>
</g>
<g>
	<rect x="55.231" y="45.583" fill="#428BCA" width="4.125" height="15.283"/>
	<rect x="40.379" y="45.608" fill="#428BCA" width="4.123" height="15.283"/>
	<rect x="47.805" y="45.608" fill="#428BCA" width="4.123" height="15.283"/>
	<rect x="62.659" y="45.608" fill="#428BCA" width="4.123" height="15.283"/>
	<polygon fill="#428BCA" points="53.579,32.863 36.046,39.998 71.114,39.998 	"/>
	<rect x="38.414" y="62.864" fill="#428BCA" width="30.331" height="2.222"/>
	<rect x="36.046" y="41.62" fill="#428BCA" width="35.068" height="1.809"/>
	<rect x="36.401" y="66.584" fill="#428BCA" width="34.359" height="2.221"/>
</g>
</svg>
