<?xml version="1.0" encoding="utf-8"?>
<!-- Generator: Adobe Illustrator 16.0.0, SVG Export Plug-In . SVG Version: 6.00 Build 0)  -->
<!DOCTYPE svg PUBLIC "-//W3C//DTD SVG 1.1//EN" "http://www.w3.org/Graphics/SVG/1.1/DTD/svg11.dtd">
<svg version="1.1" id="Layer_1" xmlns="http://www.w3.org/2000/svg" xmlns:xlink="http://www.w3.org/1999/xlink" x="0px" y="0px"
	 width="107.833px" height="105.667px" viewBox="-4.167 -2.833 107.833 105.667"
	 enable-background="new -4.167 -2.833 107.833 105.667" xml:space="preserve">
<path d="M45.142,43.058c0,1.737,1.63,2.812,3.125,3.435v-7.505C46.269,39.347,45.142,40.782,45.142,43.058z"/>
<path d="M51.737,61.016c1.998-0.357,3.125-1.793,3.125-4.068c0-1.736-1.63-2.811-3.125-3.432V61.016z"/>
<rect x="36.707" y="29.605" width="0" height="1.553"/>
<g>
	<g>
		<path fill="#428BCA" d="M93.057,43.056c-3.354,0-6.159,2.389-6.805,5.557h-8.545c-0.326-6.623-2.959-12.621-7.129-17.227
			l6.155-6.152c1.099,0.727,2.409,1.156,3.821,1.156c3.83,0,6.945-3.116,6.945-6.945c0-3.829-3.115-6.944-6.945-6.944
			c-3.828,0-6.943,3.116-6.943,6.944c0,1.414,0.43,2.727,1.158,3.825l-6.155,6.152c-4.604-4.168-10.604-6.801-17.226-7.129v-8.545
			c3.166-0.646,5.556-3.451,5.556-6.804C56.944,3.115,53.83,0,50,0c-3.828,0-6.943,3.116-6.943,6.944
			c0,3.353,2.39,6.158,5.556,6.804v8.545c-6.622,0.328-12.621,2.961-17.226,7.129l-6.155-6.153c0.729-1.099,1.158-2.412,1.158-3.825
			c0-3.829-3.115-6.944-6.944-6.944s-6.943,3.116-6.943,6.944c0,3.829,3.114,6.945,6.943,6.945c1.413,0,2.725-0.429,3.822-1.156
			l6.154,6.152c-4.17,4.606-6.803,10.604-7.129,17.227h-8.545c-0.645-3.168-3.451-5.557-6.804-5.557C3.115,43.055,0,46.171,0,50
			c0,3.831,3.115,6.944,6.944,6.944c3.353,0,6.158-2.391,6.804-5.553h8.545c0.328,6.621,2.961,12.619,7.129,17.223l-6.151,6.154
			c-1.099-0.729-2.412-1.158-3.825-1.158c-3.829,0-6.943,3.117-6.943,6.945c0,3.83,3.114,6.943,6.943,6.943s6.944-3.113,6.944-6.943
			c0-1.414-0.429-2.725-1.155-3.822l6.152-6.154c4.605,4.17,10.604,6.801,17.226,7.129v8.545c-3.166,0.645-5.556,3.449-5.556,6.803
			c0,3.83,3.115,6.945,6.943,6.945c3.83,0,6.944-3.115,6.944-6.945c0-3.354-2.39-6.158-5.556-6.803v-8.545
			c6.621-0.328,12.619-2.959,17.226-7.129l6.153,6.154c-0.729,1.1-1.156,2.408-1.156,3.822c0,3.83,3.115,6.943,6.943,6.943
			c3.83,0,6.945-3.113,6.945-6.943c0-3.828-3.115-6.945-6.945-6.945c-1.412,0-2.727,0.43-3.824,1.158l-6.152-6.154
			c4.168-4.604,6.801-10.602,7.129-17.223h8.545c0.646,3.162,3.451,5.553,6.805,5.553C96.885,56.943,100,53.83,100,50
			C100,46.171,96.885,43.056,93.057,43.056z M80.557,15.278c2.298,0,4.167,1.869,4.167,4.167c0,2.298-1.869,4.167-4.167,4.167
			c-2.299,0-4.167-1.869-4.167-4.167C76.39,17.147,78.258,15.278,80.557,15.278z M19.444,23.611c-2.298,0-4.167-1.869-4.167-4.167
			c0-2.297,1.869-4.167,4.167-4.167s4.167,1.869,4.167,4.167C23.611,21.742,21.742,23.611,19.444,23.611z M6.944,54.166
			c-2.298,0-4.167-1.869-4.167-4.167c0-2.299,1.869-4.168,4.167-4.168s4.167,1.869,4.167,4.168
			C11.111,52.297,9.242,54.166,6.944,54.166z M19.444,84.721c-2.298,0-4.167-1.867-4.167-4.166c0-2.297,1.869-4.166,4.167-4.166
			s4.167,1.869,4.167,4.166C23.611,82.854,21.742,84.721,19.444,84.721z M45.834,6.944c0-2.297,1.869-4.167,4.166-4.167
			c2.299,0,4.168,1.869,4.168,4.167c0,2.298-1.869,4.167-4.168,4.167C47.703,11.111,45.834,9.242,45.834,6.944z M54.168,93.055
			c0,2.299-1.869,4.166-4.168,4.166c-2.297,0-4.166-1.867-4.166-4.166c0-2.297,1.869-4.166,4.166-4.166
			C52.299,88.889,54.168,90.758,54.168,93.055z M60.418,56.947c0,5.367-3.52,9.221-8.681,9.676v2.824h-3.472v-2.953
			c-6.34-0.904-8.682-5.348-8.682-9.547h5.557c0,0.85,0.009,3.129,3.125,3.9v-8.33c-3.374-0.982-8.682-3.877-8.682-9.46
			c0-5.37,3.521-9.221,8.682-9.676v-2.824h3.472v2.954c6.338,0.902,8.681,5.347,8.681,9.546h-5.556c0-0.851-0.01-3.128-3.125-3.901
			v8.332C55.11,48.472,60.418,51.363,60.418,56.947z M80.557,76.389c2.298,0,4.167,1.869,4.167,4.166
			c0,2.299-1.869,4.166-4.167,4.166c-2.299,0-4.167-1.867-4.167-4.166C76.39,78.258,78.258,76.389,80.557,76.389z M93.057,54.166
			c-2.299,0-4.167-1.869-4.167-4.167c0-2.299,1.868-4.168,4.167-4.168c2.298,0,4.167,1.869,4.167,4.168
			C97.224,52.297,95.354,54.166,93.057,54.166z"/>
		<rect x="36.707" y="31.158" fill="#428BCA" width="26.187" height="39.217"/>
	</g>
	<rect x="36.707" y="30.382" fill="#428BCA" width="19.307" height="0.776"/>
</g>
<g>
	<rect x="51.341" y="42.775" fill="#FFFFFF" width="4.124" height="15.283"/>
	<rect x="36.489" y="42.801" fill="#FFFFFF" width="4.123" height="15.283"/>
	<rect x="43.915" y="42.801" fill="#FFFFFF" width="4.123" height="15.283"/>
	<rect x="58.768" y="42.801" fill="#FFFFFF" width="4.123" height="15.283"/>
	<polygon fill="#FFFFFF" points="49.689,30.055 32.156,37.19 67.224,37.19 	"/>
	<rect x="34.524" y="60.056" fill="#FFFFFF" width="30.33" height="2.222"/>
	<rect x="32.156" y="38.812" fill="#FFFFFF" width="35.067" height="1.809"/>
	<rect x="32.511" y="63.777" fill="#FFFFFF" width="34.359" height="2.221"/>
</g>
</svg>
